PathFileType	4	(X/Y/Z)	./resultDataOpenSim/trcMotMarkerGrf/sub10/qtm-04-07.trc
DataRate	CameraRate	NumFrames	NumMarkers	Units	OrigDataRate	OrigDataStartFrame	OrigNumFrames
250.000000	250.000000	11	24	m	250.000000	1	562
Frame#	Time	L.Toe.Tip			R.Toe.Tip			L.Ankle.Lat			R.Ankle.Lat			L.Ankle.Med			R.Ankle.Med			L.Heel			R.Heel			L.Knee.Lat			R.Knee.Lat			L.Knee.Med			R.Knee.Med			L.Thigh.Upper			R.Thigh.Upper			L.ASIS			R.ASIS			V.Sacral			L.Acromium			R.Acromium			C7			L.Elbow			R.Elbow			L.Wrist.Lat			R.Wrist.Lat
		X1	Y1	Z1	X2	Y2	Z2	X3	Y3	Z3	X4	Y4	Z4	X5	Y5	Z5	X6	Y6	Z6	X7	Y7	Z7	X8	Y8	Z8	X9	Y9	Z9	X10	Y10	Z10	X11	Y11	Z11	X12	Y12	Z12	X13	Y13	Z13	X14	Y14	Z14	X15	Y15	Z15	X16	Y16	Z16	X17	Y17	Z17	X18	Y18	Z18	X19	Y19	Z19	X20	Y20	Z20	X21	Y21	Z21	X22	Y22	Z22	X23	Y23	Z23	X24	Y24	Z24

1	0	-1.4735076	0.039160175	-0.15028003	-1.0734049	0.068891864	0.019959035	-1.6035959	0.063805374	-0.17573147	-1.2138523	0.067313108	0.029921292	-1.5977333	0.086903237	-0.09493164	-1.184542	0.098492348	-0.046769002	NaN	NaN	NaN	-1.2493784	0.03480001	-0.031271515	-1.4938218	0.43564153	-0.20721415	-1.2311949	0.46686396	0.061187006	-1.4986163	0.41321772	-0.085879411	-1.2118356	0.47480501	-0.065998496	-1.407934	0.82107478	-0.26208079	-1.3873294	0.85102244	0.11890284	-1.3348993	0.92601753	-0.20187198	-1.3210456	0.94036643	0.044427521	-1.5298957	0.95362148	-0.075211989	-1.3401955	1.3984126	-0.23619045	-1.3785739	1.4018932	0.086429204	-1.4404009	1.4353311	-0.089188392	-1.4198494	1.055002	-0.29924857	-1.5300421	1.0821893	0.11599649	-1.2169403	0.90520215	-0.29237086	-1.4125654	0.8776631	0.19091441
2	0.004	-1.4734654	0.039110915	-0.1503229	-1.0596283	0.070099818	0.019514955	-1.6048801	0.063478075	-0.17586974	-1.2000954	0.066577638	0.0301588	-1.5972131	0.086974206	-0.094836858	-1.1716438	0.098429267	-0.046657936	NaN	NaN	NaN	-1.2353195	0.033821911	-0.029777525	-1.4918335	0.43516457	-0.20714209	-1.2268271	0.46545499	0.061892462	-1.4960959	0.41274565	-0.085972238	-1.2076047	0.47351515	-0.065493982	-1.4047231	0.82040002	-0.26228201	-1.3826518	0.85011154	0.11882267	-1.3313716	0.92528874	-0.20212652	-1.3167994	0.93963895	0.044035389	-1.5259677	0.9525512	-0.07460695	-1.3363027	1.397461	-0.23631448	-1.3745032	1.4006852	0.086229216	-1.4364959	1.4343647	-0.08936718	-1.4147181	1.0537287	-0.299468	-1.5268919	1.0813941	0.11569806	-1.2107866	0.90533937	-0.29108346	-1.4103439	0.87661121	0.19077679
3	0.008	-1.4733787	0.039104343	-0.15035311	-1.0459679	0.071314761	0.018974223	-1.6056158	0.063293383	-0.17593437	-1.1863745	0.06593163	0.030417405	-1.5966793	0.087043655	-0.094741366	-1.1588702	0.09844393	-0.046535411	NaN	NaN	NaN	-1.2213942	0.032979168	-0.028318939	-1.4898039	0.43467331	-0.20710769	-1.2222291	0.4640193	0.062690567	-1.4936134	0.41224366	-0.086060574	-1.2033443	0.47217257	-0.064981362	-1.4015091	0.81971241	-0.26248411	-1.3779721	0.8491866	0.11874252	-1.3278873	0.9245368	-0.20241223	-1.3125075	0.93889577	0.043636929	-1.5218041	0.95137218	-0.073264844	-1.3323732	1.3964795	-0.23643306	-1.3704922	1.3994591	0.086089436	-1.4325607	1.433401	-0.089475551	-1.4095289	1.0524793	-0.29963564	-1.5237492	1.0805947	0.11539672	-1.2046382	0.90543981	-0.28980682	-1.4080317	0.87555444	0.19064585
4	0.012	-1.4732056	0.039155287	-0.15041159	-1.0324579	0.072566692	0.018240272	-1.6057431	0.063275485	-0.17592318	-1.1727422	0.065433107	0.030716723	-1.5961204	0.087109898	-0.094644029	-1.1462852	0.09857784	-0.046392533	NaN	NaN	NaN	-1.2076938	0.032312131	-0.027094193	-1.4877245	0.43416429	-0.20712362	-1.2174092	0.46256088	0.063589303	-1.4911443	0.41170167	-0.086148805	-1.1990543	0.47075914	-0.064449055	-1.3982753	0.81900492	-0.26269237	-1.3732435	0.84823069	0.11867142	-1.3244631	0.92374372	-0.20274034	-1.3081156	0.9381266	0.043224689	-1.5172748	0.95002997	-0.070810323	-1.328399	1.3954662	-0.23654242	-1.366544	1.3982173	0.086021765	-1.4285957	1.4324292	-0.089535865	-1.4042249	1.0512777	-0.29971527	-1.5205969	1.0798067	0.11510649	-1.1984862	0.90549165	-0.28852659	-1.4056426	0.87447316	0.19051491
5	0.016	-1.4729363	0.039219596	-0.15061255	-1.0190905	0.073904205	0.017227908	-1.60559	0.06337386	-0.1758837	-1.1593133	0.06509825	0.03104612	-1.5955293	0.087171155	-0.094544186	-1.1339223	0.098836913	-0.046221679	NaN	NaN	NaN	-1.194276	0.031803678	-0.026221676	-1.4856028	0.43364575	-0.20717571	-1.2125681	0.46112425	0.064526678	-1.4886654	0.41113956	-0.086240592	-1.1947661	0.46928074	-0.063887567	-1.395018	0.81827935	-0.26289893	-1.3684378	0.84723013	0.11860969	-1.3210735	0.92291037	-0.20309429	-1.3035908	0.93732923	0.042795697	-1.5125262	0.94858177	-0.067752259	-1.3243941	1.3944284	-0.23663832	-1.3626008	1.3969732	0.086000393	-1.4246217	1.4314386	-0.089600578	-1.3988114	1.0501246	-0.29969746	-1.5174139	1.0790454	0.11484385	-1.1923209	0.90549961	-0.28721763	-1.4031545	0.87336298	0.19038355
6	0.02	-1.472591	0.039225881	-0.1510635	-1.0058762	0.075361946	0.01596277	-1.6055228	0.063568452	-0.17586194	-1.1461799	0.064909597	0.031370247	-1.5949041	0.087226601	-0.094443087	-1.1217901	0.099215482	-0.046022672	NaN	NaN	NaN	-1.1811498	0.031434013	-0.025602634	-1.4834387	0.43312516	-0.20724477	-1.2078599	0.4597342	0.0654516	-1.4861818	0.41058897	-0.086322754	-1.1905099	0.46774077	-0.063292503	-1.3917394	0.81754065	-0.26309328	-1.3635895	0.84617752	0.11853962	-1.3176541	0.92205598	-0.20343885	-1.2989534	0.93650335	0.042352154	-1.5078903	0.94714598	-0.065174097	-1.3203643	1.3933615	-0.23671777	-1.3586095	1.3957264	0.085997442	-1.4206405	1.4304261	-0.089671135	-1.3933742	1.0489683	-0.2995979	-1.514197	1.0782938	0.11461692	-1.1861271	0.90547161	-0.28586219	-1.4004998	0.87223094	0.19025779
7	0.024	-1.4722109	0.039157606	-0.15169716	-0.99292189	0.07692814	0.014714242	-1.6057347	0.063875417	-0.17588206	-1.1333558	0.064834095	0.031678301	-1.5942553	0.087279167	-0.094345971	-1.1099039	0.099703228	-0.045803501	NaN	NaN	NaN	-1.1683021	0.031179617	-0.025083348	-1.4812389	0.43260512	-0.20732168	-1.2032705	0.45837571	0.066362489	-1.4837105	0.41005349	-0.086373257	-1.1863002	0.46614463	-0.06266227	-1.3884347	0.8167903	-0.26327644	-1.3587331	0.84507894	0.11845473	-1.3141505	0.92120063	-0.2037428	-1.2942675	0.93564956	0.041902515	-1.5035525	0.94578237	-0.063652572	-1.3163157	1.3922647	-0.23678195	-1.3545632	1.3944608	0.085993818	-1.4166341	1.429395	-0.089707479	-1.3880039	1.0477408	-0.29945924	-1.5109621	1.0775125	0.11442873	-1.1798963	0.90541943	-0.28445843	-1.3977009	0.87107884	0.19014124
8	0.028	-1.4719172	0.039057762	-0.15221995	-0.9803694	0.078587302	0.013827574	-1.6061471	0.064271765	-0.17593661	-1.1208202	0.064846231	0.03199986	-1.5936171	0.087338719	-0.094261243	-1.0983036	0.10027887	-0.045566477	NaN	NaN	NaN	-1.1557158	0.031003802	-0.024567333	-1.4790153	0.43208683	-0.20740084	-1.1987002	0.45704904	0.067276756	-1.4812754	0.40950287	-0.086390103	-1.1821327	0.46451026	-0.061993225	-1.3851063	0.81602715	-0.26344928	-1.3538684	0.84394845	0.11836908	-1.3105551	0.92034909	-0.2039991	-1.2895889	0.93477024	0.041458848	-1.4994366	0.94446916	-0.062928133	-1.3122642	1.3911484	-0.23683485	-1.3504566	1.3931617	0.085982344	-1.4125868	1.4283469	-0.089682742	-1.3826995	1.0464179	-0.29933172	-1.5077211	1.076681	0.1142787	-1.1736411	0.90535256	-0.28301648	-1.3948604	0.86991115	0.19004008
9	0.032	-1.4718986	0.03896198	-0.15232448	-0.96826235	0.080395919	0.013330007	-1.6064993	0.064676321	-0.17599132	-1.1085668	0.064936317	0.032366732	-1.5930378	0.087421235	-0.094194764	-1.0870321	0.10091665	-0.04530628	NaN	NaN	NaN	-1.1433721	0.030861656	-0.023993938	-1.4767662	0.43157026	-0.2074767	-1.1940858	0.45577132	0.068201845	-1.47886	0.4089235	-0.086398505	-1.17799	0.46286254	-0.061276338	-1.3817679	0.81525482	-0.26361084	-1.3490158	0.84279377	0.11829343	-1.3069027	0.91949117	-0.20422697	-1.2849304	0.93386758	0.041029488	-1.4953843	0.94316842	-0.062501938	-1.3082194	1.3900174	-0.23687821	-1.3462786	1.3918289	0.085973631	-1.4085003	1.4272768	-0.089611242	-1.3773999	1.0450262	-0.29923803	-1.5044718	1.0758109	0.11416323	-1.1674052	0.90526471	-0.28155733	-1.3920693	0.86873479	0.1899594
10	0.036	-1.4721954	0.038879247	-0.15200143	-0.95656068	0.082452739	0.012913803	-1.6066169	0.065028667	-0.17601841	-1.0966052	0.065098842	0.032782867	-1.5925412	0.087540713	-0.094145455	-1.0761132	0.10159967	-0.045023152	NaN	NaN	NaN	-1.1312495	0.030714722	-0.0233006	-1.4744853	0.43105519	-0.207553	-1.1893937	0.45451866	0.069147667	-1.4763941	0.40833896	-0.086422741	-1.173854	0.46121842	-0.060500557	-1.3784275	0.81448055	-0.26376741	-1.3441777	0.84161854	0.11823624	-1.303241	0.91861364	-0.20445704	-1.2802657	0.93294218	0.040615812	-1.4913047	0.9418589	-0.062083407	-1.3041708	1.3888644	-0.23690764	-1.3420571	1.3904719	0.085989168	-1.4043864	1.4261808	-0.089519819	-1.372069	1.0436057	-0.29917975	-1.5012087	1.0749205	0.11407573	-1.1612422	0.90514101	-0.28010971	-1.3893483	0.86755162	0.18989845
11	0.04	-1.472593	0.038811865	-0.15155661	-0.94523083	0.084794402	0.012310783	-1.6065296	0.065333792	-0.17601881	-1.0849594	0.065328169	0.033234286	-1.5921172	0.087698285	-0.094107031	-1.0655611	0.10231321	-0.044724919	NaN	NaN	NaN	-1.1193345	0.030539432	-0.022438997	-1.4721779	0.43054321	-0.20763943	-1.1845978	0.45322987	0.070122852	-1.4738385	0.40776595	-0.086465181	-1.1697119	0.45958327	-0.05966402	-1.3750828	0.81371	-0.26392866	-1.3392845	0.84042626	0.11820675	-1.2995968	0.91771246	-0.20470899	-1.2755694	0.93199204	0.040213317	-1.4871812	0.94053037	-0.061598852	-1.3001026	1.3876882	-0.2369173	-1.337844	1.3891006	0.086044297	-1.4002553	1.4250648	-0.089424576	-1.3667088	1.0421778	-0.29915606	-1.4979271	1.0740198	0.11400812	-1.1551549	0.90498201	-0.27868184	-1.386664	0.86636112	0.18985244
